<?xml version="1.0" encoding="utf-8"?>
<!-- Generator: Adobe Illustrator 24.1.2, SVG Export Plug-In . SVG Version: 6.00 Build 0)  -->
<svg version="1.1" id="Warstwa_1" xmlns="http://www.w3.org/2000/svg" xmlns:xlink="http://www.w3.org/1999/xlink" x="0px" y="0px"
	 viewBox="0 0 430 430" style="enable-background:new 0 0 430 430;" xml:space="preserve">
<style type="text/css">
	.st0{fill:#121331;}
	.st1{fill:#08a88a;}
	.st2{fill:#08a88a;}
	.st3{fill:none;}
	.st4{fill:#08A385;}
	.st5{fill:none;stroke:#08A385;stroke-width:12;stroke-linecap:round;stroke-linejoin:round;stroke-miterlimit:10;}
	.st6{fill:none;stroke:#121331;stroke-width:12;stroke-linecap:round;stroke-linejoin:round;stroke-miterlimit:10;}
</style>
<g>
	<path class="st1" d="M215,341.25c-1.31,0-2.61-0.43-3.7-1.28l-33.8-26.49c-15.76-12.54-26.99-30.19-31.66-49.74
		c-0.03-0.15-0.06-0.29-0.09-0.44L135,196.52c-0.51-3.16,1.55-6.16,4.68-6.82c23.49-4.96,63.5-15.89,70.85-24.09
		c1.14-1.27,2.76-1.99,4.47-1.99c1.7,0,3.33,0.73,4.47,1.99c7.36,8.2,47.36,19.13,70.85,24.09c3.13,0.66,5.19,3.66,4.68,6.82
		l-10.76,66.78c-0.02,0.15-0.05,0.3-0.09,0.44c-4.67,19.54-15.9,37.2-31.63,49.71l-33.83,26.52
		C217.61,340.82,216.31,341.25,215,341.25z M157.57,261.17c4.08,16.86,13.8,32.09,27.38,42.9L215,327.62l30.09-23.59
		c13.54-10.78,23.26-26,27.34-42.87l9.82-60.95c-15.72-3.53-52.07-12.49-67.25-22.84c-15.18,10.35-51.54,19.3-67.25,22.84
		L157.57,261.17z"/>
	<g>
		<path class="st0" d="M378.57,200.35l-54.23-51.02V70.16c0-3.31-2.69-6-6-6h-46.81c-3.31,0-6,2.69-6,6V94l-46.39-43.65
			c-2.31-2.17-5.91-2.17-8.22,0L78.38,175c-0.14,0.12-0.28,0.25-0.4,0.38l-26.55,24.97c-2.41,2.27-2.53,6.07-0.26,8.48
			c1.18,1.26,2.77,1.89,4.37,1.89c1.47,0,2.95-0.54,4.11-1.63l16.64-15.65v181.84c0,3.31,2.69,6,6,6h265.38c3.31,0,6-2.69,6-6
			V193.39l16.69,15.7c2.41,2.27,6.21,2.15,8.48-0.26C381.1,206.41,380.99,202.62,378.57,200.35z M277.54,76.16h34.81v61.88
			l-34.81-32.75V76.16z M341.66,369.28H88.29V182.15L215.03,62.96L341.66,182.1V369.28z"/>
		<path class="st0" d="M191.34,254.92c-2.34-2.34-6.14-2.34-8.48,0c-2.34,2.34-2.34,6.14,0,8.49l15.35,15.35
			c1.13,1.13,2.65,1.76,4.24,1.76c1.59,0,3.12-0.63,4.24-1.76l46.01-46.02c2.34-2.34,2.34-6.14,0-8.49c-2.34-2.34-6.14-2.34-8.48,0
			l-41.77,41.77L191.34,254.92z"/>
	</g>
</g>
</svg>
